<svg width="40" height="24" viewBox="0 0 40 24" fill="none" xmlns="http://www.w3.org/2000/svg">
<path d="M37.8798 0.562866H2.11998C1.48096 0.562866 0.962891 1.11543 0.962891 1.79709V22.3138C0.962891 22.9954 1.48092 23.548 2.11998 23.548H37.8798C38.5188 23.548 39.0369 22.9954 39.0369 22.3138V1.79709C39.0372 1.11548 38.5191 0.562866 37.8798 0.562866ZM2.78873 22.4605C2.41567 22.4605 2.11338 22.138 2.11338 21.7401V2.37064C2.11338 1.97272 2.41567 1.65027 2.78873 1.65027H9.42057V22.4611L2.78873 22.4605ZM10.7052 22.4605V1.64968H19.1903V22.4605H10.7052ZM20.4752 22.4605V1.64968H28.9603V22.4605H20.4752ZM37.8861 21.7401C37.8861 22.138 37.5838 22.4605 37.2107 22.4605H30.245V1.64968H37.2107C37.5838 1.64968 37.8861 1.97213 37.8861 2.37005V21.7401Z" fill="white"/>
<path d="M3.31982 8.27136H7.9992V11.8941H3.31982V8.27136Z" fill="white"/>
<path d="M3.32031 3H7.99969V6.62272H3.32031V3Z" fill="white"/>
<path d="M12.8296 3.44141H17.509V7.06413H12.8296V3.44141Z" fill="white"/>
<path d="M12.8296 8H17.509V11.6227H12.8296V8Z" fill="white"/>
<path d="M12.8296 13H17.509V16.6227H12.8296V13Z" fill="white"/>
<path d="M22.3394 3.44141H27.0187V7.06413H22.3394V3.44141Z" fill="white"/>
<path d="M31.8496 12.5586H36.529V16.1813H31.8496V12.5586Z" fill="white"/>
<path d="M31.8496 17.1172H36.529V20.7399H31.8496V17.1172Z" fill="white"/>
<path d="M22.3394 8.27136H27.0187V11.8941H22.3394V8.27136Z" fill="white"/>
<path d="M22.3394 13H27.0187V16.6227H22.3394V13Z" fill="white"/>
<path d="M22.3394 17.7286H27.0187V21.3513H22.3394V17.7286Z" fill="white"/>
<path d="M3.31982 13.1017H7.9992V16.7244H3.31982V13.1017Z" fill="white"/>
</svg>
